<svg id="图层_2" data-name="图层 2" xmlns="http://www.w3.org/2000/svg" xmlns:xlink="http://www.w3.org/1999/xlink" viewBox="0 0 2000 2000"><defs><style>.cls-1{fill:url(#未命名的渐变_715);}.cls-2,.cls-8{stroke:#fff;stroke-miterlimit:10;stroke-width:30px;}.cls-2{fill:url(#未命名的渐变_759);}.cls-3{fill:#603813;}.cls-4{fill:#ed1c24;}.cls-5{fill:#fff;}.cls-6{fill:#666;}.cls-7{fill:#4d4d4d;}.cls-8{fill:url(#未命名的渐变_687);}.cls-9{fill:url(#未命名的渐变_631);}</style><linearGradient id="未命名的渐变_715" x1="-0.25" y1="1000" x2="2000.25" y2="1000" gradientUnits="userSpaceOnUse"><stop offset="0" stop-color="#012169"/><stop offset="0.11" stop-color="#093367"/><stop offset="0.27" stop-color="#124865"/><stop offset="0.46" stop-color="#185764"/><stop offset="0.68" stop-color="#1c6063"/><stop offset="1" stop-color="#1d6363"/></linearGradient><linearGradient id="未命名的渐变_759" x1="536.75" y1="1029.56" x2="1703.35" y2="1029.56" gradientUnits="userSpaceOnUse"><stop offset="0.31" stop-color="#1a1a1a"/><stop offset="0.5" stop-color="#1f1f1f"/><stop offset="0.71" stop-color="#2c2c2c"/><stop offset="0.93" stop-color="#424242"/><stop offset="1" stop-color="#4b4b4b"/></linearGradient><linearGradient id="未命名的渐变_687" x1="88.4" y1="778.07" x2="647.22" y2="778.07" gradientUnits="userSpaceOnUse"><stop offset="0.56" stop-color="#ae001b"/><stop offset="0.66" stop-color="#b7041c"/><stop offset="0.83" stop-color="#cf0f20"/><stop offset="1" stop-color="#ed1c24"/></linearGradient><linearGradient id="未命名的渐变_631" x1="95.27" y1="955.48" x2="433.55" y2="955.48" gradientUnits="userSpaceOnUse"><stop offset="0" stop-color="#ff7300"/><stop offset="0.38" stop-color="#fe7500"/><stop offset="0.52" stop-color="#fa7c01"/><stop offset="0.62" stop-color="#f38701"/><stop offset="0.7" stop-color="#e99803"/><stop offset="0.72" stop-color="#e59e03"/><stop offset="0.91" stop-color="#e5b701"/><stop offset="1" stop-color="#e5c500"/></linearGradient></defs><circle class="cls-1" cx="1000" cy="1000" r="1000.25"/><path class="cls-2" d="M539.14,1121.3c89.94,32.29,110.59,88,140.44,155,44.25,99.39,12.64,201.28-4.22,304.5-13.65,83.58-62.66,196.9-80.82,237-5.88,13-1,29,3.87,42.67a981.85,981.85,0,0,0,377.61,75c288.06,0,547.22-123.65,727.33-320.77-19.15-29.85-46.07-61.83-81.75-96-30.88-29.6-113.93-109.89-96.23-200.2s71.15-164.23,108.73-242.57c39.61-82.58,49.31-280.4,49.31-280.4V751.58c0-346.79-275.47-627.92-615.28-627.92-226.61,0-424.61,125-531.38,311.19"/><circle cx="928.42" cy="700.72" r="191.53"/><circle class="cls-3" cx="928.42" cy="700.72" r="166.31"/><circle class="cls-4" cx="891.31" cy="711.38" r="111.95"/><circle cx="891.31" cy="711.38" r="96.24"/><ellipse class="cls-5" cx="867.62" cy="679.28" rx="40.83" ry="29.68"/><ellipse class="cls-6" cx="828.43" cy="725.73" rx="11.12" ry="7.29"/><ellipse class="cls-7" cx="903.71" cy="724.88" rx="18.27" ry="15.92"/><path class="cls-8" d="M315.57,811c4.57-1.77,8.48-3.29,11.65-4.66,108.41-47,107.93-94.29,137.92-180.2h0a632.51,632.51,0,0,1,49.34-148.76l22.27-42.5s64.33,5.5,87.37,74.61,18.85,172-62.45,287.19C500.43,883.4,591,942.06,634,974.69a33.33,33.33,0,0,1,7.44,45.31c-17.28,25.49-50.07,64.34-102.31,101.3-2.59-.93-108-25.93-187.43-29.09L120.22,1083a33.09,33.09,0,0,1-31.64-36.44c2-19.39,10-46.33,32.61-79.73C195.2,857.42,277.76,825.6,315.57,811Z"/><path class="cls-9" d="M394,1019.48c1-2.27-25.18-9.93-27.55-10.69L303.64,981c-82.77-26.79-4.3-129.23,15.63-155.63C279.53,841.28,207.06,864,136.33,968.58c-22.59,33.4-38.85,59.22-40.88,78.61-2,19,12.77,28.9,31.84,29.65l238.5,4.22c21.42.85,44.21,1.46,67.76,4.52-3.75-.49-7.68-2.26-22.13-9C369.28,1056.79,383.26,1043.12,394,1019.48Z"/><path class="cls-5" d="M103.48,1076c.94-1.63,2-3.22,3-4.75l1-1.34c.78-1.05-1.12,1.33.3-.38.76-.91,1.51-1.83,2.3-2.72a98.19,98.19,0,0,1,10.54-10.26,108.52,108.52,0,0,1,26.23-16.16c10.3-4.42,21.27-6,32.48-7.1q18.76-1.87,37.59-3.27,62.29-4.59,124.81-3.2c31.57.72,63.08,2.68,94.63,4,27.75,1.18,55.56,1.61,83.26-.74,15.68-1.32,31.22-3.63,46.71-6.37,22.85-4.05,45.93-8.55,67.54-17.24a165.25,165.25,0,0,0,16-7.32c3.57-1.9,4.67-6.87,2.69-10.26a7.64,7.64,0,0,0-10.27-2.69c-20,10.62-43,16-65.5,20.38-9.79,1.91-19.62,3.69-29.48,5.22q-2.61.4-5.23.78l-2.88.4-1.45.19q-5.38.69-10.79,1.23c-27.74,2.82-55.62,2.75-83.45,1.71-31.11-1.17-62.18-3.2-93.31-4.08q-61.35-1.72-122.65,2.24-18.62,1.23-37.19,3c-12.51,1.15-25.43,1.69-37.55,5.2-20.66,6-40.59,18.64-54.47,35.12a75.14,75.14,0,0,0-7.81,10.87,7.5,7.5,0,0,0,13,7.57Z"/></svg>